<?xml version="1.0" encoding="utf-8"?>
<!-- Generator: Adobe Illustrator 22.0.0, SVG Export Plug-In . SVG Version: 6.00 Build 0)  -->
<svg version="1.1" id="Слой_1" xmlns="http://www.w3.org/2000/svg" xmlns:xlink="http://www.w3.org/1999/xlink" x="0px" y="0px"
	 viewBox="0 0 448 512" style="enable-background:new 0 0 448 512;" xml:space="preserve">
<style type="text/css">
	.st0{fill:#5B6F7F;}
</style>
<path class="st0" d="M147.7,289.1h-40.2c-6.6,0-12.1-5.4-12.1-12.1v-40.2c0-6.6,5.4-12.1,12.1-12.1h40.2c6.6,0,12.1,5.4,12.1,12.1
	v40.2C159.7,283.7,154.3,289.1,147.7,289.1z M256.1,277.1v-40.2c0-6.6-5.4-12.1-12.1-12.1h-40.2c-6.6,0-12.1,5.4-12.1,12.1v40.2
	c0,6.6,5.4,12.1,12.1,12.1h40.2C250.7,289.1,256.1,283.7,256.1,277.1z M352.6,277.1v-40.2c0-6.6-5.4-12.1-12.1-12.1h-40.2
	c-6.6,0-12.1,5.4-12.1,12.1v40.2c0,6.6,5.4,12.1,12.1,12.1h40.2C347.1,289.1,352.6,283.7,352.6,277.1z M256.1,373.5v-40.2
	c0-6.6-5.4-12.1-12.1-12.1h-40.2c-6.6,0-12.1,5.4-12.1,12.1v40.2c0,6.6,5.4,12.1,12.1,12.1h40.2
	C250.7,385.6,256.1,380.1,256.1,373.5z M159.7,373.5v-40.2c0-6.6-5.4-12.1-12.1-12.1h-40.2c-6.6,0-12.1,5.4-12.1,12.1v40.2
	c0,6.6,5.4,12.1,12.1,12.1h40.2C154.3,385.6,159.7,380.1,159.7,373.5z M352.6,373.5v-40.2c0-6.6-5.4-12.1-12.1-12.1h-40.2
	c-6.6,0-12.1,5.4-12.1,12.1v40.2c0,6.6,5.4,12.1,12.1,12.1h40.2C347.1,385.6,352.6,380.1,352.6,373.5z M449,112.4v353.6
	c0,26.6-21.6,48.2-48.2,48.2H47.2C20.6,514.1-1,492.5-1,465.9V112.4c0-26.6,21.6-48.2,48.2-48.2h48.2V11.9c0-6.6,5.4-12.1,12.1-12.1
	h40.2c6.6,0,12.1,5.4,12.1,12.1v52.2h128.6V11.9c0-6.6,5.4-12.1,12.1-12.1h40.2c6.6,0,12.1,5.4,12.1,12.1v52.2h48.2
	C427.4,64.1,449,85.7,449,112.4z M400.8,459.9V160.6H47.2v299.3c0,3.3,2.7,6,6,6h341.5C398.1,465.9,400.8,463.2,400.8,459.9z"/>
</svg>
