<?xml version="1.0" encoding="utf-8"?>
<!-- Generator: Adobe Illustrator 22.0.0, SVG Export Plug-In . SVG Version: 6.00 Build 0)  -->
<svg version="1.1" id="Слой_1" xmlns="http://www.w3.org/2000/svg" xmlns:xlink="http://www.w3.org/1999/xlink" x="0px" y="0px"
	 viewBox="0 0 576 512" style="enable-background:new 0 0 576 512;" xml:space="preserve">
<style type="text/css">
	.st0{fill:#5B6F7F;}
</style>
<path class="st0" d="M420.1,238c-41.6-70.6-119.2-117.8-207.6-117.8c-88.4,0-166,47.2-207.6,117.8c-6.5,11.1-6.5,24.9,0,36
	c41.6,70.6,119.2,117.8,207.6,117.8c88.4,0,166-47.2,207.6-117.8C426.6,262.9,426.6,249.1,420.1,238L420.1,238z M212.5,356.3
	C136.8,356.3,70.8,316,35.4,256c32.6-55.3,91.3-93.9,159.5-99.6c7.2,7.4,11.7,17.6,11.7,28.8c0,22.8-18.5,41.3-41.3,41.3
	S124,208,124,185.2l0,0c-7.5,14.1-11.8,30.2-11.8,47.3c0,55.4,44.9,100.3,100.3,100.3s100.3-44.9,100.3-100.3
	c0-22.9-7.7-44-20.6-60.9c41,17.1,75.2,46.9,97.3,84.5C354.2,316,288.2,356.3,212.5,356.3z"/>
</svg>
