<?xml version="1.0" encoding="utf-8"?>
<!-- Generator: Adobe Illustrator 22.0.0, SVG Export Plug-In . SVG Version: 6.00 Build 0)  -->
<svg version="1.1" id="Слой_1" xmlns="http://www.w3.org/2000/svg" xmlns:xlink="http://www.w3.org/1999/xlink" x="0px" y="0px"
	 viewBox="0 0 448 512" style="enable-background:new 0 0 448 512;" xml:space="preserve">
<style type="text/css">
	.st0{fill:#5B6F7F;}
</style>
<path class="st0" d="M224,256c67,0,121.3-54.3,121.3-121.3S291,13.5,224,13.5S102.8,67.8,102.8,134.8S157,256,224,256z M308.9,286.3
	h-15.8c-21,9.7-44.4,15.2-69.1,15.2s-47.9-5.5-69.1-15.2h-15.8c-70.3,0-127.3,57-127.3,127.3V453c0,25.1,20.4,45.5,45.5,45.5h333.4
	c25.1,0,45.5-20.4,45.5-45.5v-39.4C436.2,343.3,379.2,286.3,308.9,286.3z"/>
</svg>
